<?xml version="1.0" encoding="utf-8"?>
<svg width="1110.5" height="150.5" x="0.5" y="0.5" xmlns="http://www.w3.org/2000/svg" xmlns:xlink="http://www.w3.org/1999/xlink" shape-rendering="crispEdges">
    <style type="text/css">
        .white{fill:#FFFFFF;}
        .gold{fill:#dec814;}
        .green{fill:#64df0d;}
        .orange{fill:#e38919;}
        .pink{fill:#ff4adc;}
        .rose{fill:#ff5670;}
        .apple{fill:#9af443;}
        .brown{fill:#ff5918;}
        .teal{fill:#9ad6b0;}
        .yellow{fill:#efe024;}
        .ocean{fill:#68cb30;}
        .purple{fill:#be6b9c;}
        .ribbon{fill:#db426e;}
    </style>
    <title>honeymustard.svg</title>
    <defs>
        <symbol id="white">
            <rect width="10" height="10" class="white" />
        </symbol>
        <symbol id="gold">
            <rect width="10" height="10" class="gold" />
        </symbol>
        <symbol id="green">
            <rect width="10" height="10" class="green" />
        </symbol>
        <symbol id="orange">
            <rect width="10" height="10" class="orange" />
        </symbol>
        <symbol id="pink">
            <rect width="10" height="10" class="pink" />
        </symbol>
        <symbol id="rose">
            <rect width="10" height="10" class="rose" />
        </symbol>
        <symbol id="apple">
            <rect width="10" height="10" class="apple" />
        </symbol>
        <symbol id="brown">
            <rect width="10" height="10" class="brown" />
        </symbol>
        <symbol id="teal">
            <rect width="10" height="10" class="teal" />
        </symbol>
        <symbol id="yellow">
            <rect width="10" height="10" class="yellow" />
        </symbol>
        <symbol id="ocean">
            <rect width="10" height="10" class="ocean" />
        </symbol>
        <symbol id="purple">
            <rect width="10" height="10" class="purple" />
        </symbol>
        <symbol id="ribbon">
            <rect width="10" height="10" class="ribbon" />
        </symbol>
    </defs>

    <!-- Letter: H -->

    <!-- column (H,0 -->
    <use xlink:href="#white" x="0.5" y="0.5" />
    <use xlink:href="#white" x="0.5" y="10.5" />
    <use xlink:href="#white" x="0.5" y="20.5" />
    <use xlink:href="#white" x="0.5" y="120.5" />
    <use xlink:href="#white" x="0.5" y="130.5" />
    <use xlink:href="#white" x="0.5" y="140.5" />

    <!-- column (H,1) -->
    <use xlink:href="#white" x="10.5" y="0.5" />
    <use xlink:href="#gold" x="10.5" y="10.5" />
    <use xlink:href="#white" x="10.5" y="20.5" />
    <use xlink:href="#white" x="10.5" y="30.5" />
    <use xlink:href="#white" x="10.5" y="40.5" />
    <use xlink:href="#white" x="10.5" y="50.5" />
    <use xlink:href="#white" x="10.5" y="60.5" />
    <use xlink:href="#white" x="10.5" y="70.5" />
    <use xlink:href="#white" x="10.5" y="80.5" />
    <use xlink:href="#white" x="10.5" y="90.5" />
    <use xlink:href="#white" x="10.5" y="100.5" />
    <use xlink:href="#white" x="10.5" y="110.5" />
    <use xlink:href="#white" x="10.5" y="120.5" />
    <use xlink:href="#gold" x="10.5" y="130.5" />
    <use xlink:href="#white" x="10.5" y="140.5" />

    <!-- column (H,2) -->
    <use xlink:href="#white" x="20.5" y="0.5" />
    <use xlink:href="#gold" x="20.5" y="20.5" />
    <use xlink:href="#gold" x="20.5" y="40.5" />
    <use xlink:href="#gold" x="20.5" y="60.5" />
    <use xlink:href="#gold" x="20.5" y="80.5" />
    <use xlink:href="#gold" x="20.5" y="100.5" />
    <use xlink:href="#gold" x="20.5" y="120.5" />
    <use xlink:href="#white" x="20.5" y="140.5" />

    <!-- column (H,3) -->
    <use xlink:href="#white" x="30.5" y="0.5" />
    <use xlink:href="#gold" x="30.5" y="10.5" />
    <use xlink:href="#gold" x="30.5" y="30.5" />
    <use xlink:href="#gold" x="30.5" y="50.5" />
    <use xlink:href="#gold" x="30.5" y="70.5" />
    <use xlink:href="#gold" x="30.5" y="90.5" />
    <use xlink:href="#gold" x="30.5" y="110.5" />
    <use xlink:href="#gold" x="30.5" y="130.5" />
    <use xlink:href="#white" x="30.5" y="140.5" />

    <!-- column (H,4) -->
    <use xlink:href="#white" x="40.5" y="0.5" />
    <use xlink:href="#white" x="40.5" y="20.5" />
    <use xlink:href="#white" x="40.5" y="30.5" />
    <use xlink:href="#white" x="40.5" y="40.5" />
    <use xlink:href="#white" x="40.5" y="50.5" />
    <use xlink:href="#white" x="40.5" y="60.5" />
    <use xlink:href="#gold" x="40.5" y="80.5" />
    <use xlink:href="#white" x="40.5" y="90.5" />
    <use xlink:href="#white" x="40.5" y="100.5" />
    <use xlink:href="#white" x="40.5" y="110.5" />
    <use xlink:href="#white" x="40.5" y="120.5" />
    <use xlink:href="#white" x="40.5" y="140.5" />

    <!-- column (H,5) -->
    <use xlink:href="#white" x="50.5" y="0.5" />
    <use xlink:href="#white" x="50.5" y="10.5" />
    <use xlink:href="#white" x="50.5" y="20.5" />
    <use xlink:href="#white" x="50.5" y="60.5" />
    <use xlink:href="#gold" x="50.5" y="70.5" />
    <use xlink:href="#white" x="50.5" y="90.5" />
    <use xlink:href="#white" x="50.5" y="120.5" />
    <use xlink:href="#white" x="50.5" y="130.5" />
    <use xlink:href="#white" x="50.5" y="140.5" />

    <!-- column (H,6) -->
    <use xlink:href="#white" x="60.5" y="60.5" />
    <use xlink:href="#gold" x="60.5" y="80.5" />
    <use xlink:href="#white" x="60.5" y="90.5" />

    <!-- column (H,7) -->
    <use xlink:href="#white" x="70.5" y="0.5" />
    <use xlink:href="#white" x="70.5" y="10.5" />
    <use xlink:href="#white" x="70.5" y="20.5" />
    <use xlink:href="#white" x="70.5" y="60.5" />
    <use xlink:href="#gold" x="70.5" y="70.5" />
    <use xlink:href="#white" x="70.5" y="90.5" />
    <use xlink:href="#white" x="70.5" y="120.5" />
    <use xlink:href="#white" x="70.5" y="130.5" />
    <use xlink:href="#white" x="70.5" y="140.5" />

    <!-- column (H,8) -->
    <use xlink:href="#white" x="80.5" y="0.5" />
    <use xlink:href="#white" x="80.5" y="20.5" />
    <use xlink:href="#white" x="80.5" y="30.5" />
    <use xlink:href="#white" x="80.5" y="40.5" />
    <use xlink:href="#white" x="80.5" y="50.5" />
    <use xlink:href="#white" x="80.5" y="60.5" />
    <use xlink:href="#gold" x="80.5" y="80.5" />
    <use xlink:href="#white" x="80.5" y="90.5" />
    <use xlink:href="#white" x="80.5" y="100.5" />
    <use xlink:href="#white" x="80.5" y="110.5" />
    <use xlink:href="#white" x="80.5" y="120.5" />
    <use xlink:href="#white" x="80.5" y="140.5" />

    <!-- column (H,9) -->
    <use xlink:href="#white" x="90.5" y="0.5" />
    <use xlink:href="#gold" x="90.5" y="10.5" />
    <use xlink:href="#gold" x="90.5" y="30.5" />
    <use xlink:href="#gold" x="90.5" y="50.5" />
    <use xlink:href="#gold" x="90.5" y="70.5" />
    <use xlink:href="#gold" x="90.5" y="90.5" />
    <use xlink:href="#gold" x="90.5" y="110.5" />
    <use xlink:href="#gold" x="90.5" y="130.5" />
    <use xlink:href="#white" x="90.5" y="140.5" />

    <!-- column (H,10) -->
    <use xlink:href="#white" x="100.5" y="0.5" />
    <use xlink:href="#gold" x="100.5" y="20.5" />
    <use xlink:href="#gold" x="100.5" y="40.5" />
    <use xlink:href="#gold" x="100.5" y="60.5" />
    <use xlink:href="#gold" x="100.5" y="80.5" />
    <use xlink:href="#gold" x="100.5" y="100.5" />
    <use xlink:href="#gold" x="100.5" y="120.5" />
    <use xlink:href="#white" x="100.5" y="140.5" />

    <!-- column (H,11) -->
    <use xlink:href="#white" x="110.5" y="0.5" />
    <use xlink:href="#gold" x="110.5" y="10.5" />
    <use xlink:href="#white" x="110.5" y="20.5" />
    <use xlink:href="#white" x="110.5" y="30.5" />
    <use xlink:href="#white" x="110.5" y="40.5" />
    <use xlink:href="#white" x="110.5" y="50.5" />
    <use xlink:href="#white" x="110.5" y="60.5" />
    <use xlink:href="#white" x="110.5" y="70.5" />
    <use xlink:href="#white" x="110.5" y="80.5" />
    <use xlink:href="#white" x="110.5" y="90.5" />
    <use xlink:href="#white" x="110.5" y="100.5" />
    <use xlink:href="#white" x="110.5" y="110.5" />
    <use xlink:href="#white" x="110.5" y="120.5" />
    <use xlink:href="#gold" x="110.5" y="130.5" />
    <use xlink:href="#white" x="110.5" y="140.5" />

    <!-- column (H,12) -->
    <use xlink:href="#white" x="120.5" y="0.5" />
    <use xlink:href="#white" x="120.5" y="10.5" />
    <use xlink:href="#white" x="120.5" y="20.5" />
    <use xlink:href="#white" x="120.5" y="120.5" />
    <use xlink:href="#white" x="120.5" y="130.5" />
    <use xlink:href="#white" x="120.5" y="140.5" />

    <!-- Letter: O -->

    <!-- column (O,0) -->
    <use xlink:href="#white" x="140.5" y="80.5" />
    <use xlink:href="#white" x="140.5" y="90.5" />
    <use xlink:href="#white" x="140.5" y="100.5" />
    <use xlink:href="#white" x="140.5" y="110.5" />
    <use xlink:href="#white" x="140.5" y="120.5" />

    <!-- column (O,1) -->
    <use xlink:href="#white" x="150.5" y="70.5" />
    <use xlink:href="#green" x="150.5" y="90.5" />
    <use xlink:href="#green" x="150.5" y="110.5" />
    <use xlink:href="#white" x="150.5" y="130.5" />

    <!-- column (O,2) -->
    <use xlink:href="#white" x="160.5" y="60.5" />
    <use xlink:href="#green" x="160.5" y="80.5" />
    <use xlink:href="#white" x="160.5" y="90.5" />
    <use xlink:href="#white" x="160.5" y="100.5" />
    <use xlink:href="#white" x="160.5" y="110.5" />
    <use xlink:href="#green" x="160.5" y="120.5" />
    <use xlink:href="#white" x="160.5" y="140.5" />

    <!-- column (O,3) -->
    <use xlink:href="#white" x="170.5" y="60.5" />
    <use xlink:href="#green" x="170.5" y="70.5" />
    <use xlink:href="#white" x="170.5" y="80.5" />
    <use xlink:href="#white" x="170.5" y="120.5" />
    <use xlink:href="#green" x="170.5" y="130.5" />
    <use xlink:href="#white" x="170.5" y="140.5" />

    <!-- column (O,4) : center -->
    <use xlink:href="#white" x="180.5" y="60.5" />
    <use xlink:href="#white" x="180.5" y="80.5" />
    <use xlink:href="#white" x="180.5" y="120.5" />
    <use xlink:href="#white" x="180.5" y="140.5" />

    <!-- column (O,5) -->
    <use xlink:href="#white" x="190.5" y="60.5" />
    <use xlink:href="#green" x="190.5" y="70.5" />
    <use xlink:href="#white" x="190.5" y="80.5" />
    <use xlink:href="#white" x="190.5" y="120.5" />
    <use xlink:href="#green" x="190.5" y="130.5" />
    <use xlink:href="#white" x="190.5" y="140.5" />

    <!-- column (O,6) -->
    <use xlink:href="#white" x="200.5" y="60.5" />
    <use xlink:href="#green" x="200.5" y="80.5" />
    <use xlink:href="#white" x="200.5" y="90.5" />
    <use xlink:href="#white" x="200.5" y="100.5" />
    <use xlink:href="#white" x="200.5" y="110.5" />
    <use xlink:href="#green" x="200.5" y="120.5" />
    <use xlink:href="#white" x="200.5" y="140.5" />

    <!-- column (O,7) -->
    <use xlink:href="#white" x="210.5" y="70.5" />
    <use xlink:href="#green" x="210.5" y="90.5" />
    <use xlink:href="#green" x="210.5" y="110.5" />
    <use xlink:href="#white" x="210.5" y="130.5" />

    <!-- column (O,8) -->
    <use xlink:href="#white" x="220.5" y="80.5" />
    <use xlink:href="#white" x="220.5" y="90.5" />
    <use xlink:href="#white" x="220.5" y="100.5" />
    <use xlink:href="#white" x="220.5" y="110.5" />
    <use xlink:href="#white" x="220.5" y="120.5" />

    <!-- Letter: N -->

    <!-- column (N,0) -->
    <use xlink:href="#white" x="240.5" y="60.5" />
    <use xlink:href="#white" x="240.5" y="70.5" />
    <use xlink:href="#white" x="240.5" y="80.5" />
    <use xlink:href="#white" x="240.5" y="90.5" />
    <use xlink:href="#white" x="240.5" y="100.5" />
    <use xlink:href="#white" x="240.5" y="110.5" />
    <use xlink:href="#white" x="240.5" y="120.5" />
    <use xlink:href="#white" x="240.5" y="130.5" />
    <use xlink:href="#white" x="240.5" y="140.5" />

    <!-- column (N,1) -->
    <use xlink:href="#white" x="250.5" y="60.5" />
    <use xlink:href="#orange" x="250.5" y="80.5" />
    <use xlink:href="#orange" x="250.5" y="100.5" />
    <use xlink:href="#orange" x="250.5" y="120.5" />
    <use xlink:href="#white" x="250.5" y="140.5" />

    <!-- column (N,2) -->
    <use xlink:href="#white" x="260.5" y="70.5" />
    <use xlink:href="#white" x="260.5" y="90.5" />
    <use xlink:href="#white" x="260.5" y="100.5" />
    <use xlink:href="#white" x="260.5" y="110.5" />
    <use xlink:href="#white" x="260.5" y="120.5" />
    <use xlink:href="#white" x="260.5" y="130.5" />
    <use xlink:href="#white" x="260.5" y="140.5" />

    <!-- column (N,3) -->
    <use xlink:href="#white" x="270.5" y="60.5" />
    <use xlink:href="#white" x="270.5" y="80.5" />

    <!-- column (N,4) -->
    <use xlink:href="#white" x="280.5" y="60.5" />
    <use xlink:href="#orange" x="280.5" y="70.5" />
    <use xlink:href="#white" x="280.5" y="80.5" />

    <!-- column (N,5) -->
    <use xlink:href="#white" x="290.5" y="60.5" />
    <use xlink:href="#white" x="290.5" y="80.5" />

    <!-- column (N,6) -->
    <use xlink:href="#white" x="300.5" y="60.5" />
    <use xlink:href="#orange" x="300.5" y="70.5" />
    <use xlink:href="#white" x="300.5" y="90.5" />
    <use xlink:href="#white" x="300.5" y="100.5" />
    <use xlink:href="#white" x="300.5" y="110.5" />
    <use xlink:href="#white" x="300.5" y="120.5" />
    <use xlink:href="#white" x="300.5" y="130.5" />
    <use xlink:href="#white" x="300.5" y="140.5" />

    <!-- column (N,7) -->
    <use xlink:href="#white" x="310.5" y="70.5" />
    <use xlink:href="#orange" x="310.5" y="80.5" />
    <use xlink:href="#orange" x="310.5" y="100.5" />
    <use xlink:href="#orange" x="310.5" y="120.5" />
    <use xlink:href="#white" x="310.5" y="140.5" />

    <!-- column (N,8) -->
    <use xlink:href="#white" x="320.5" y="80.5" />
    <use xlink:href="#white" x="320.5" y="90.5" />
    <use xlink:href="#white" x="320.5" y="100.5" />
    <use xlink:href="#white" x="320.5" y="110.5" />
    <use xlink:href="#white" x="320.5" y="120.5" />
    <use xlink:href="#white" x="320.5" y="130.5" />
    <use xlink:href="#white" x="320.5" y="140.5" />

    <!-- Letter: E -->

    <!-- column (E,0) -->
    <use xlink:href="#white" x="340.5" y="80.5" />
    <use xlink:href="#white" x="340.5" y="90.5" />
    <use xlink:href="#white" x="340.5" y="100.5" />
    <use xlink:href="#white" x="340.5" y="110.5" />
    <use xlink:href="#white" x="340.5" y="120.5" />

    <!-- column (E,1) -->
    <use xlink:href="#white" x="350.5" y="70.5" />
    <use xlink:href="#pink" x="350.5" y="90.5" />
    <use xlink:href="#pink" x="350.5" y="110.5" />
    <use xlink:href="#white" x="350.5" y="130.5" />

    <!-- column (E,2) -->
    <use xlink:href="#white" x="360.5" y="60.5" />
    <use xlink:href="#pink" x="360.5" y="80.5" />
    <use xlink:href="#white" x="360.5" y="90.5" />
    <use xlink:href="#white" x="360.5" y="100.5" />
    <use xlink:href="#white" x="360.5" y="110.5" />
    <use xlink:href="#pink" x="360.5" y="120.5" />
    <use xlink:href="#white" x="360.5" y="140.5" />

    <!-- column (E,3) -->
    <use xlink:href="#white" x="370.5" y="60.5" />
    <use xlink:href="#pink" x="370.5" y="70.5" />
    <use xlink:href="#white" x="370.5" y="80.5" />
    <use xlink:href="#white" x="370.5" y="100.5" />
    <use xlink:href="#white" x="370.5" y="120.5" />
    <use xlink:href="#pink" x="370.5" y="130.5" />
    <use xlink:href="#white" x="370.5" y="140.5" />

    <!-- column (E,4) -->
    <use xlink:href="#white" x="380.5" y="60.5" />
    <use xlink:href="#white" x="380.5" y="80.5" />
    <use xlink:href="#white" x="380.5" y="100.5" />
    <use xlink:href="#white" x="380.5" y="120.5" />
    <use xlink:href="#white" x="380.5" y="140.5" />

    <!-- column (E,5) -->
    <use xlink:href="#white" x="390.5" y="60.5" />
    <use xlink:href="#pink" x="390.5" y="70.5" />
    <use xlink:href="#white" x="390.5" y="90.5" />
    <use xlink:href="#white" x="390.5" y="100.5" />
    <use xlink:href="#white" x="390.5" y="120.5" />
    <use xlink:href="#pink" x="390.5" y="130.5" />
    <use xlink:href="#white" x="390.5" y="140.5" />

    <!-- column (E,6) -->
    <use xlink:href="#white" x="400.5" y="70.5" />
    <use xlink:href="#pink" x="400.5" y="80.5" />
    <use xlink:href="#white" x="400.5" y="100.5" />
    <use xlink:href="#white" x="400.5" y="120.5" />
    <use xlink:href="#white" x="400.5" y="140.5" />

    <!-- column (E,7) -->
    <use xlink:href="#white" x="410.5" y="80.5" />
    <use xlink:href="#white" x="410.5" y="90.5" />
    <use xlink:href="#white" x="410.5" y="100.5" />
    <use xlink:href="#white" x="410.5" y="100.5" />
    <use xlink:href="#white" x="410.5" y="130.5" />

    <!-- Letter: Y -->

    <!-- column (Y,0) -->
    <use xlink:href="#white" x="430.5" y="60.5" />
    <use xlink:href="#white" x="430.5" y="70.5" />
    <use xlink:href="#white" x="430.5" y="80.5" />
    <use xlink:href="#white" x="430.5" y="90.5" />
    <use xlink:href="#white" x="430.5" y="110.5" />
    <use xlink:href="#white" x="430.5" y="120.5" />
    <use xlink:href="#white" x="430.5" y="130.5" />

    <!-- column (Y,1) -->
    <use xlink:href="#white" x="440.5" y="60.5" />
    <use xlink:href="#rose" x="440.5" y="70.5" />
    <use xlink:href="#white" x="440.5" y="90.5" />
    <use xlink:href="#white" x="440.5" y="110.5" />
    <use xlink:href="#rose" x="440.5" y="130.5" />
    <use xlink:href="#white" x="440.5" y="140.5" />

    <!-- column (Y,2) -->
    <use xlink:href="#white" x="450.5" y="60.5" />
    <use xlink:href="#white" x="450.5" y="70.5" />
    <use xlink:href="#rose" x="450.5" y="80.5" />
    <use xlink:href="#white" x="450.5" y="100.5" />
    <use xlink:href="#white" x="450.5" y="120.5" />
    <use xlink:href="#white" x="450.5" y="140.5" />

    <!-- column (Y,3) -->
    <use xlink:href="#white" x="460.5" y="80.5" />
    <use xlink:href="#rose" x="460.5" y="90.5" />
    <use xlink:href="#white" x="460.5" y="100.5" />
    <use xlink:href="#white" x="460.5" y="120.5" />
    <use xlink:href="#rose" x="460.5" y="130.5" />
    <use xlink:href="#white" x="460.5" y="140.5" />

    <!-- column (Y,4) -->
    <use xlink:href="#white" x="470.5" y="60.5" />
    <use xlink:href="#white" x="470.5" y="70.5" />
    <use xlink:href="#white" x="470.5" y="80.5" />
    <use xlink:href="#white" x="470.5" y="100.5" />
    <use xlink:href="#white" x="470.5" y="110.5" />
    <use xlink:href="#rose" x="470.5" y="120.5" />
    <use xlink:href="#white" x="470.5" y="140.5" />

    <!-- column (Y,5) -->
    <use xlink:href="#white" x="480.5" y="60.5" />
    <use xlink:href="#rose" x="480.5" y="70.5" />
    <use xlink:href="#rose" x="480.5" y="90.5" />
    <use xlink:href="#rose" x="480.5" y="110.5" />
    <use xlink:href="#rose" x="480.5" y="130.5" />
    <use xlink:href="#white" x="480.5" y="140.5" />

    <!-- column (Y,6) -->
    <use xlink:href="#white" x="490.5" y="60.5" />
    <use xlink:href="#white" x="490.5" y="70.5" />
    <use xlink:href="#white" x="490.5" y="80.5" />
    <use xlink:href="#white" x="490.5" y="90.5" />
    <use xlink:href="#white" x="490.5" y="100.5" />
    <use xlink:href="#white" x="490.5" y="110.5" />
    <use xlink:href="#white" x="490.5" y="120.5" />
    <use xlink:href="#white" x="490.5" y="130.5" />

    <!-- Letter: M -->

    <!-- column (M,0) -->
    <use xlink:href="#white" x="510.5" y="60.5" />
    <use xlink:href="#white" x="510.5" y="70.5" />
    <use xlink:href="#white" x="510.5" y="80.5" />
    <use xlink:href="#white" x="510.5" y="90.5" />
    <use xlink:href="#white" x="510.5" y="100.5" />
    <use xlink:href="#white" x="510.5" y="110.5" />
    <use xlink:href="#white" x="510.5" y="120.5" />
    <use xlink:href="#white" x="510.5" y="130.5" />
    <use xlink:href="#white" x="510.5" y="140.5" />

    <!-- column (M,1) -->
    <use xlink:href="#white" x="520.5" y="60.5" />
    <use xlink:href="#apple" x="520.5" y="70.5" />
    <use xlink:href="#apple" x="520.5" y="90.5" />
    <use xlink:href="#apple" x="520.5" y="110.5" />
    <use xlink:href="#apple" x="520.5" y="130.5" />
    <use xlink:href="#white" x="520.5" y="140.5" />

    <!-- column (M,2) -->
    <use xlink:href="#white" x="530.5" y="70.5" />
    <use xlink:href="#apple" x="530.5" y="80.5" />
    <use xlink:href="#white" x="530.5" y="100.5" />
    <use xlink:href="#white" x="530.5" y="110.5" />
    <use xlink:href="#white" x="530.5" y="120.5" />
    <use xlink:href="#white" x="530.5" y="130.5" />
    <use xlink:href="#white" x="530.5" y="140.5" />

    <!-- column (M,3) -->
    <use xlink:href="#white" x="540.5" y="60.5" />
    <use xlink:href="#apple" x="540.5" y="70.5" />
    <use xlink:href="#white" x="540.5" y="90.5" />

    <!-- column (M,4) -->
    <use xlink:href="#white" x="550.5" y="60.5" />
    <use xlink:href="#apple" x="550.5" y="80.5" />
    <use xlink:href="#white" x="550.5" y="100.5" />

    <!-- column (M,5) -->
    <use xlink:href="#white" x="560.5" y="70.5" />
    <use xlink:href="#apple" x="560.5" y="90.5" />
    <use xlink:href="#white" x="560.5" y="100.5" />

    <!-- column (M,6) -->
    <use xlink:href="#white" x="570.5" y="60.5" />
    <use xlink:href="#apple" x="570.5" y="80.5" />
    <use xlink:href="#white" x="570.5" y="90.5" />

    <!-- column (M,7) -->
    <use xlink:href="#white" x="580.5" y="60.5" />
    <use xlink:href="#apple" x="580.5" y="70.5" />
    <use xlink:href="#apple" x="580.5" y="90.5" />
    <use xlink:href="#white" x="580.5" y="100.5" />
    <use xlink:href="#white" x="580.5" y="110.5" />
    <use xlink:href="#white" x="580.5" y="120.5" />
    <use xlink:href="#white" x="580.5" y="130.5" />
    <use xlink:href="#white" x="580.5" y="140.5" />

    <!-- column (M,8) -->
    <use xlink:href="#white" x="590.5" y="70.5" />
    <use xlink:href="#apple" x="590.5" y="80.5" />
    <use xlink:href="#apple" x="590.5" y="100.5" />
    <use xlink:href="#apple" x="590.5" y="120.5" />
    <use xlink:href="#white" x="590.5" y="140.5" />

    <!-- column (M,9) -->
    <use xlink:href="#white" x="600.5" y="80.5" />
    <use xlink:href="#white" x="600.5" y="90.5" />
    <use xlink:href="#white" x="600.5" y="100.5" />
    <use xlink:href="#white" x="600.5" y="110.5" />
    <use xlink:href="#white" x="600.5" y="120.5" />
    <use xlink:href="#white" x="600.5" y="130.5" />
    <use xlink:href="#white" x="600.5" y="140.5" />

    <!-- Letter: U -->

    <!-- column (U,0) -->
    <use xlink:href="#white" x="620.5" y="60.5" />
    <use xlink:href="#white" x="620.5" y="70.5" />
    <use xlink:href="#white" x="620.5" y="80.5" />
    <use xlink:href="#white" x="620.5" y="90.5" />
    <use xlink:href="#white" x="620.5" y="100.5" />
    <use xlink:href="#white" x="620.5" y="110.5" />
    <use xlink:href="#white" x="620.5" y="120.5" />
    <use xlink:href="#white" x="620.5" y="130.5" />

    <!-- column (U,1) -->
    <use xlink:href="#white" x="630.5" y="60.5" />
    <use xlink:href="#brown" x="630.5" y="70.5" />
    <use xlink:href="#brown" x="630.5" y="90.5" />
    <use xlink:href="#brown" x="630.5" y="110.5" />
    <use xlink:href="#brown" x="630.5" y="130.5" />
    <use xlink:href="#white" x="630.5" y="140.5" />

    <!-- column (U,2) -->
    <use xlink:href="#white" x="640.5" y="60.5" />
    <use xlink:href="#white" x="640.5" y="70.5" />
    <use xlink:href="#white" x="640.5" y="80.5" />
    <use xlink:href="#white" x="640.5" y="90.5" />
    <use xlink:href="#white" x="640.5" y="100.5" />
    <use xlink:href="#white" x="640.5" y="110.5" />
    <use xlink:href="#brown" x="640.5" y="120.5" />
    <use xlink:href="#white" x="640.5" y="140.5" />

    <!-- column (U,3) -->
    <use xlink:href="#white" x="650.5" y="110.5" />
    <use xlink:href="#brown" x="650.5" y="130.5" />
    <use xlink:href="#white" x="650.5" y="140.5" />

    <!-- column (U,4) -->
    <use xlink:href="#white" x="660.5" y="110.5" />
    <use xlink:href="#brown" x="660.5" y="120.5" />
    <use xlink:href="#white" x="660.5" y="140.5" />

    <!-- column (U,5) -->
    <use xlink:href="#white" x="670.5" y="60.5" />
    <use xlink:href="#white" x="670.5" y="70.5" />
    <use xlink:href="#white" x="670.5" y="80.5" />
    <use xlink:href="#white" x="670.5" y="90.5" />
    <use xlink:href="#white" x="670.5" y="100.5" />
    <use xlink:href="#brown" x="670.5" y="110.5" />
    <use xlink:href="#white" x="670.5" y="130.5" />

    <!-- column (U,6) -->
    <use xlink:href="#white" x="680.5" y="60.5" />
    <use xlink:href="#brown" x="680.5" y="80.5" />
    <use xlink:href="#brown" x="680.5" y="100.5" />
    <use xlink:href="#brown" x="680.5" y="120.5" />
    <use xlink:href="#white" x="680.5" y="140.5" />

    <!-- column (U,7) -->
    <use xlink:href="#white" x="690.5" y="60.5" />
    <use xlink:href="#white" x="690.5" y="70.5" />
    <use xlink:href="#white" x="690.5" y="80.5" />
    <use xlink:href="#white" x="690.5" y="90.5" />
    <use xlink:href="#white" x="690.5" y="100.5" />
    <use xlink:href="#white" x="690.5" y="110.5" />
    <use xlink:href="#white" x="690.5" y="120.5" />
    <use xlink:href="#white" x="690.5" y="130.5" />
    <use xlink:href="#white" x="690.5" y="140.5" />

    <!-- Letter: S -->

    <!-- column (S,0) -->
    <use xlink:href="#white" x="710.5" y="70.5" />
    <use xlink:href="#white" x="710.5" y="80.5" />
    <use xlink:href="#white" x="710.5" y="90.5" />
    <use xlink:href="#white" x="710.5" y="100.5" />
    <use xlink:href="#white" x="710.5" y="120.5" />
    <use xlink:href="#white" x="710.5" y="130.5" />

    <!-- column (S,1) -->
    <use xlink:href="#white" x="720.5" y="60.5" />
    <use xlink:href="#teal" x="720.5" y="80.5" />
    <use xlink:href="#teal" x="720.5" y="100.5" />
    <use xlink:href="#white" x="720.5" y="110.5" />
    <use xlink:href="#teal" x="720.5" y="120.5" />
    <use xlink:href="#white" x="720.5" y="140.5" />

    <!-- column (S,2) -->
    <use xlink:href="#white" x="730.5" y="60.5" />
    <use xlink:href="#teal" x="730.5" y="70.5" />
    <use xlink:href="#white" x="730.5" y="90.5" />
    <use xlink:href="#white" x="730.5" y="110.5" />
    <use xlink:href="#teal" x="730.5" y="130.5" />
    <use xlink:href="#white" x="730.5" y="140.5" />

    <!-- column (S,3) -->
    <use xlink:href="#white" x="740.5" y="60.5" />
    <use xlink:href="#teal" x="740.5" y="80.5" />
    <use xlink:href="#white" x="740.5" y="90.5" />
    <use xlink:href="#teal" x="740.5" y="100.5" />
    <use xlink:href="#white" x="740.5" y="110.5" />
    <use xlink:href="#teal" x="740.5" y="120.5" />
    <use xlink:href="#white" x="740.5" y="140.5" />

    <!-- column (S,4) -->
    <use xlink:href="#white" x="750.5" y="60.5" />
    <use xlink:href="#teal" x="750.5" y="70.5" />
    <use xlink:href="#white" x="750.5" y="90.5" />
    <use xlink:href="#teal" x="750.5" y="110.5" />
    <use xlink:href="#white" x="750.5" y="120.5" />
    <use xlink:href="#teal" x="750.5" y="130.5" />
    <use xlink:href="#white" x="750.5" y="140.5" />

    <!-- column (S,5) -->
    <use xlink:href="#white" x="760.5" y="60.5" />
    <use xlink:href="#teal" x="760.5" y="80.5" />
    <use xlink:href="#white" x="760.5" y="90.5" />
    <use xlink:href="#teal" x="760.5" y="100.5" />
    <use xlink:href="#teal" x="760.5" y="120.5" />
    <use xlink:href="#white" x="760.5" y="140.5" />

    <!-- column (S,6) -->
    <use xlink:href="#white" x="770.5" y="70.5" />
    <use xlink:href="#white" x="770.5" y="80.5" />
    <use xlink:href="#white" x="770.5" y="100.5" />
    <use xlink:href="#white" x="770.5" y="110.5" />
    <use xlink:href="#white" x="770.5" y="120.5" />
    <use xlink:href="#white" x="770.5" y="130.5" />

    <!-- Letter: T -->

    <!-- column (T,0) -->
    <use xlink:href="#white" x="790.5" y="60.5" />
    <use xlink:href="#white" x="790.5" y="70.5" />
    <use xlink:href="#white" x="790.5" y="80.5" />
    <use xlink:href="#white" x="790.5" y="90.5" />
    <use xlink:href="#white" x="790.5" y="100.5" />

    <!-- column (T,1) -->
    <use xlink:href="#white" x="800.5" y="40.5" />
    <use xlink:href="#white" x="800.5" y="50.5" />
    <use xlink:href="#white" x="800.5" y="60.5" />
    <use xlink:href="#yellow" x="800.5" y="80.5" />
    <use xlink:href="#white" x="800.5" y="90.5" />
    <use xlink:href="#white" x="800.5" y="100.5" />
    <use xlink:href="#white" x="800.5" y="110.5" />
    <use xlink:href="#white" x="800.5" y="120.5" />
    <use xlink:href="#white" x="800.5" y="130.5" />

    <!-- column (T,2) -->
    <use xlink:href="#white" x="810.5" y="40.5" />
    <use xlink:href="#yellow" x="810.5" y="50.5" />
    <use xlink:href="#yellow" x="810.5" y="70.5" />
    <use xlink:href="#yellow" x="810.5" y="90.5" />
    <use xlink:href="#yellow" x="810.5" y="110.5" />
    <use xlink:href="#yellow" x="810.5" y="130.5" />
    <use xlink:href="#white" x="810.5" y="140.5" />

    <!-- column (T,3) -->
    <use xlink:href="#white" x="820.5" y="40.5" />
    <use xlink:href="#yellow" x="820.5" y="60.5" />
    <use xlink:href="#yellow" x="820.5" y="80.5" />
    <use xlink:href="#yellow" x="820.5" y="100.5" />
    <use xlink:href="#yellow" x="820.5" y="120.5" />
    <use xlink:href="#white" x="820.5" y="140.5" />

    <!-- column (T,4) -->
    <use xlink:href="#white" x="830.5" y="40.5" />
    <use xlink:href="#white" x="830.5" y="50.5" />
    <use xlink:href="#white" x="830.5" y="60.5" />
    <use xlink:href="#yellow" x="830.5" y="70.5" />
    <use xlink:href="#white" x="830.5" y="90.5" />
    <use xlink:href="#white" x="830.5" y="100.5" />
    <use xlink:href="#white" x="830.5" y="110.5" />
    <use xlink:href="#yellow" x="830.5" y="130.5" />
    <use xlink:href="#white" x="830.5" y="140.5" />

    <!-- column (T,5) -->
    <use xlink:href="#white" x="840.5" y="60.5" />
    <use xlink:href="#yellow" x="840.5" y="80.5" />
    <use xlink:href="#white" x="840.5" y="90.5" />
    <use xlink:href="#white" x="840.5" y="120.5" />
    <use xlink:href="#white" x="840.5" y="140.5" />

    <!-- column (T,6) -->
    <use xlink:href="#white" x="850.5" y="60.5" />
    <use xlink:href="#white" x="850.5" y="70.5" />
    <use xlink:href="#white" x="850.5" y="80.5" />
    <use xlink:href="#white" x="850.5" y="90.5" />
    <use xlink:href="#white" x="850.5" y="120.5" />
    <use xlink:href="#white" x="850.5" y="130.5" />
    <use xlink:href="#white" x="850.5" y="140.5" />

    <!-- Letter: A -->

    <!-- column (A,0) -->
    <use xlink:href="#white" x="870.5" y="80.5" />
    <use xlink:href="#white" x="870.5" y="90.5" />
    <use xlink:href="#white" x="870.5" y="100.5" />
    <use xlink:href="#white" x="870.5" y="110.5" />
    <use xlink:href="#white" x="870.5" y="120.5" />

    <!-- column (A,1) -->
    <use xlink:href="#white" x="880.5" y="70.5" />
    <use xlink:href="#ocean" x="880.5" y="80.5" />
    <use xlink:href="#ocean" x="880.5" y="100.5" />
    <use xlink:href="#ocean" x="880.5" y="120.5" />
    <use xlink:href="#white" x="880.5" y="130.5" />

    <!-- column (A,2) -->
    <use xlink:href="#white" x="890.5" y="60.5" />
    <use xlink:href="#ocean" x="890.5" y="70.5" />
    <use xlink:href="#white" x="890.5" y="90.5" />
    <use xlink:href="#white" x="890.5" y="100.5" />
    <use xlink:href="#white" x="890.5" y="110.5" />
    <use xlink:href="#ocean" x="890.5" y="130.5" />
    <use xlink:href="#white" x="890.5" y="140.5" />

    <!-- column (A,3) -->
    <use xlink:href="#white" x="900.5" y="60.5" />
    <use xlink:href="#ocean" x="900.5" y="80.5" />
    <use xlink:href="#white" x="900.5" y="90.5" />
    <use xlink:href="#white" x="900.5" y="110.5" />
    <use xlink:href="#ocean" x="900.5" y="120.5" />
    <use xlink:href="#white" x="900.5" y="140.5" />

    <!-- column (A,4) -->
    <use xlink:href="#white" x="910.5" y="60.5" />
    <use xlink:href="#ocean" x="910.5" y="70.5" />
    <use xlink:href="#white" x="910.5" y="90.5" />
    <use xlink:href="#white" x="910.5" y="100.5" />
    <use xlink:href="#white" x="910.5" y="110.5" />
    <use xlink:href="#ocean" x="910.5" y="130.5" />
    <use xlink:href="#white" x="910.5" y="140.5" />

    <!-- column (A,5) -->
    <use xlink:href="#white" x="920.5" y="70.5" />
    <use xlink:href="#ocean" x="920.5" y="80.5" />
    <use xlink:href="#ocean" x="920.5" y="100.5" />
    <use xlink:href="#ocean" x="920.5" y="120.5" />
    <use xlink:href="#white" x="920.5" y="130.5" />

    <!-- column (A,6) -->
    <use xlink:href="#white" x="930.5" y="60.5" />
    <use xlink:href="#ocean" x="930.5" y="70.5" />
    <use xlink:href="#ocean" x="930.5" y="90.5" />
    <use xlink:href="#ocean" x="930.5" y="110.5" />
    <use xlink:href="#ocean" x="930.5" y="130.5" />
    <use xlink:href="#white" x="930.5" y="140.5" />

    <!-- column (A,7) -->
    <use xlink:href="#white" x="940.5" y="60.5" />
    <use xlink:href="#white" x="940.5" y="70.5" />
    <use xlink:href="#white" x="940.5" y="80.5" />
    <use xlink:href="#white" x="940.5" y="90.5" />
    <use xlink:href="#white" x="940.5" y="100.5" />
    <use xlink:href="#white" x="940.5" y="110.5" />
    <use xlink:href="#white" x="940.5" y="120.5" />
    <use xlink:href="#white" x="940.5" y="130.5" />
    <use xlink:href="#white" x="940.5" y="140.5" />

    <!-- Letter: R -->

    <!-- column (R,0) -->
    <use xlink:href="#white" x="960.5" y="60.5" />
    <use xlink:href="#white" x="960.5" y="70.5" />
    <use xlink:href="#white" x="960.5" y="80.5" />
    <use xlink:href="#white" x="960.5" y="90.5" />
    <use xlink:href="#white" x="960.5" y="100.5" />
    <use xlink:href="#white" x="960.5" y="110.5" />
    <use xlink:href="#white" x="960.5" y="120.5" />
    <use xlink:href="#white" x="960.5" y="130.5" />
    <use xlink:href="#white" x="960.5" y="140.5" />

    <!-- column (R,1) -->
    <use xlink:href="#white" x="970.5" y="60.5" />
    <use xlink:href="#purple" x="970.5" y="70.5" />
    <use xlink:href="#purple" x="970.5" y="90.5" />
    <use xlink:href="#purple" x="970.5" y="110.5" />
    <use xlink:href="#purple" x="970.5" y="130.5" />
    <use xlink:href="#white" x="970.5" y="140.5" />

    <!-- column (R,2) -->
    <use xlink:href="#white" x="980.5" y="60.5" />
    <use xlink:href="#white" x="980.5" y="80.5" />
    <use xlink:href="#white" x="980.5" y="90.5" />
    <use xlink:href="#white" x="980.5" y="100.5" />
    <use xlink:href="#white" x="980.5" y="120.5" />
    <use xlink:href="#white" x="980.5" y="130.5" />
    <use xlink:href="#white" x="980.5" y="140.5" />

    <!-- column (R,3) -->
    <use xlink:href="#white" x="990.5" y="60.5" />
    <use xlink:href="#purple" x="990.5" y="70.5" />
    <use xlink:href="#white" x="990.5" y="80.5" />
    <use xlink:href="#white" x="990.5" y="100.5" />
    <use xlink:href="#purple" x="990.5" y="110.5" />
    <use xlink:href="#white" x="990.5" y="120.5" />

    <!-- column (R,4) -->
    <use xlink:href="#white" x="1000.5" y="60.5" />
    <use xlink:href="#purple" x="1000.5" y="80.5" />
    <use xlink:href="#white" x="1000.5" y="90.5" />
    <use xlink:href="#white" x="1000.5" y="100.5" />
    <use xlink:href="#purple" x="1000.5" y="120.5" />
    <use xlink:href="#white" x="1000.5" y="130.5" />
    <use xlink:href="#white" x="1000.5" y="140.5" />

    <!-- column (R,5) -->
    <use xlink:href="#white" x="1010.5" y="70.5" />
    <use xlink:href="#purple" x="1010.5" y="90.5" />
    <use xlink:href="#white" x="1010.5" y="110.5" />
    <use xlink:href="#purple" x="1010.5" y="130.5" />
    <use xlink:href="#white" x="1010.5" y="140.5" />

    <!-- column (R,6) -->
    <use xlink:href="#white" x="1020.5" y="80.5" />
    <use xlink:href="#white" x="1020.5" y="90.5" />
    <use xlink:href="#white" x="1020.5" y="100.5" />
    <use xlink:href="#white" x="1020.5" y="120.5" />
    <use xlink:href="#white" x="1020.5" y="130.5" />
    <use xlink:href="#white" x="1020.5" y="140.5" />

    <!-- Letter: D -->

    <!-- column (D,0) -->
    <use xlink:href="#white" x="1040.5" y="90.5" />
    <use xlink:href="#white" x="1040.5" y="100.5" />
    <use xlink:href="#white" x="1040.5" y="110.5" />
    <use xlink:href="#white" x="1040.5" y="120.5" />
    <use xlink:href="#white" x="1040.5" y="130.5" />

    <!-- column (D,1) -->
    <use xlink:href="#white" x="1050.5" y="80.5" />
    <use xlink:href="#ribbon" x="1050.5" y="90.5" />
    <use xlink:href="#ribbon" x="1050.5" y="110.5" />
    <use xlink:href="#ribbon" x="1050.5" y="130.5" />
    <use xlink:href="#white" x="1050.5" y="140.5" />

    <!-- column (D,2) -->
    <use xlink:href="#white" x="1060.5" y="80.5" />
    <use xlink:href="#white" x="1060.5" y="100.5" />
    <use xlink:href="#white" x="1060.5" y="110.5" />
    <use xlink:href="#white" x="1060.5" y="120.5" />
    <use xlink:href="#white" x="1060.5" y="140.5" />

    <!-- column (D,3) -->
    <use xlink:href="#white" x="1070.5" y="40.5" />
    <use xlink:href="#white" x="1070.5" y="50.5" />
    <use xlink:href="#white" x="1070.5" y="60.5" />
    <use xlink:href="#white" x="1070.5" y="70.5" />
    <use xlink:href="#white" x="1070.5" y="80.5" />
    <use xlink:href="#ribbon" x="1070.5" y="90.5" />
    <use xlink:href="#white" x="1070.5" y="100.5" />
    <use xlink:href="#white" x="1070.5" y="120.5" />
    <use xlink:href="#ribbon" x="1070.5" y="130.5" />
    <use xlink:href="#white" x="1070.5" y="140.5" />

    <!-- column (D,4) -->
    <use xlink:href="#white" x="1080.5" y="40.5" />
    <use xlink:href="#ribbon" x="1080.5" y="60.5" />
    <use xlink:href="#ribbon" x="1080.5" y="80.5" />
    <use xlink:href="#white" x="1080.5" y="100.5" />
    <use xlink:href="#white" x="1080.5" y="110.5" />
    <use xlink:href="#white" x="1080.5" y="120.5" />
    <use xlink:href="#white" x="1080.5" y="140.5" />

    <!-- column (D,5) -->
    <use xlink:href="#white" x="1090.5" y="40.5" />
    <use xlink:href="#ribbon" x="1090.5" y="50.5" />
    <use xlink:href="#ribbon" x="1090.5" y="70.5" />
    <use xlink:href="#ribbon" x="1090.5" y="90.5" />
    <use xlink:href="#ribbon" x="1090.5" y="110.5" />
    <use xlink:href="#ribbon" x="1090.5" y="130.5" />
    <use xlink:href="#white" x="1090.5" y="140.5" />

    <!-- column (D,6) -->
    <use xlink:href="#white" x="1100.5" y="40.5" />
    <use xlink:href="#white" x="1100.5" y="50.5" />
    <use xlink:href="#white" x="1100.5" y="60.5" />
    <use xlink:href="#white" x="1100.5" y="70.5" />
    <use xlink:href="#white" x="1100.5" y="80.5" />
    <use xlink:href="#white" x="1100.5" y="90.5" />
    <use xlink:href="#white" x="1100.5" y="100.5" />
    <use xlink:href="#white" x="1100.5" y="110.5" />
    <use xlink:href="#white" x="1100.5" y="120.5" />
    <use xlink:href="#white" x="1100.5" y="130.5" />
    <use xlink:href="#white" x="1100.5" y="140.5" />

</svg>
